####
#
# OBJ File Generated by Meshlab
#
####
# Object SLBNR12_test.obj
#
# Vertices: 168
# Faces: 334
#
####
vn -5.790367 1.680503 -0.000009
v -0.005000 0.009500 0.000000 0.752941 0.752941 0.752941
vn -5.790298 1.623332 -0.435001
v -0.005000 0.009176 -0.002459 0.752941 0.752941 0.752941
vn -5.790307 1.623313 0.435018
v -0.005000 0.009176 0.002459 0.752941 0.752941 0.752941
vn -3.141154 2.719964 -1.570335
v -0.005000 0.008227 -0.004750 0.752941 0.752941 0.752941
vn -3.141135 2.719949 1.570360
v -0.005000 0.008227 0.004750 0.752941 0.752941 0.752941
vn -5.790430 1.188206 -1.188234
v -0.005000 0.006718 -0.006718 0.752941 0.752941 0.752941
vn -5.790421 1.188203 1.188233
v -0.005000 0.006718 0.006718 0.752941 0.752941 0.752941
vn -5.485114 -2.081741 -0.000022
v -0.005000 0.006000 0.000000 0.752941 0.752941 0.752941
vn -5.485200 -2.010719 -0.538735
v -0.005000 0.005796 0.001553 0.752941 0.752941 0.752941
vn -5.485195 -1.040839 1.802747
v -0.005000 0.003000 -0.005196 0.752941 0.752941 0.752941
vn -5.485047 -1.472091 1.472048
v -0.005000 0.004243 -0.004243 0.752941 0.752941 0.752941
vn -5.790395 0.840228 -1.455314
v -0.005000 0.004750 -0.008227 0.752941 0.752941 0.752941
vn -5.485217 -1.802709 1.040852
v -0.005000 0.005196 -0.003000 0.752941 0.752941 0.752941
vn -5.485186 -2.010729 0.538762
v -0.005000 0.005796 -0.001553 0.752941 0.752941 0.752941
vn -5.790298 0.435001 -1.623332
v -0.005000 0.002459 -0.009176 0.752941 0.752941 0.752941
vn -3.141090 0.000000 -3.140725
v -0.005000 0.000000 -0.009500 0.752941 0.752941 0.752941
vn -5.485130 0.000000 2.081723
v -0.005000 0.000000 -0.006000 0.752941 0.752941 0.752941
vn -5.485201 -0.538736 2.010717
v -0.005000 0.001553 -0.005796 0.752941 0.752941 0.752941
vn -5.485047 1.472048 1.472091
v -0.005000 -0.004243 -0.004243 0.752941 0.752941 0.752941
vn -5.485215 1.040855 1.802709
v -0.005000 -0.003000 -0.005196 0.752941 0.752941 0.752941
vn -5.790316 -0.434953 -1.623317
v -0.005000 -0.002459 -0.009176 0.752941 0.752941 0.752941
vn -5.485199 0.538735 2.010719
v -0.005000 -0.001553 -0.005796 0.752941 0.752941 0.752941
vn -5.790401 -0.840237 -1.455301
v -0.005000 -0.004750 -0.008227 0.752941 0.752941 0.752941
vn -5.790421 -1.188203 -1.188233
v -0.005000 -0.006718 -0.006718 0.752941 0.752941 0.752941
vn -5.485201 2.010717 0.538736
v -0.005000 -0.005796 -0.001553 0.752941 0.752941 0.752941
vn -5.485195 1.802747 1.040839
v -0.005000 -0.005196 -0.003000 0.752941 0.752941 0.752941
vn -5.790367 -1.680503 -0.000005
v -0.005000 -0.009500 0.000000 0.752941 0.752941 0.752941
vn -5.790314 -1.623318 0.435018
v -0.005000 -0.009176 0.002459 0.752941 0.752941 0.752941
vn -5.790298 -1.623332 -0.435001
v -0.005000 -0.009176 -0.002459 0.752941 0.752941 0.752941
vn -3.141154 -2.719964 1.570335
v -0.005000 -0.008227 0.004750 0.752941 0.752941 0.752941
vn -3.141135 -2.719949 -1.570360
v -0.005000 -0.008227 -0.004750 0.752941 0.752941 0.752941
vn -5.790429 -1.188205 1.188237
v -0.005000 -0.006718 0.006718 0.752941 0.752941 0.752941
vn -5.485114 2.081741 0.000022
v -0.005000 -0.006000 0.000000 0.752941 0.752941 0.752941
vn -5.485194 -1.802747 -1.040841
v -0.005000 0.005196 0.003000 0.752941 0.752941 0.752941
vn -5.485025 -1.472088 -1.472088
v -0.005000 0.004243 0.004243 0.752941 0.752941 0.752941
vn -5.790401 0.840237 1.455301
v -0.005000 0.004750 0.008227 0.752941 0.752941 0.752941
vn -5.485130 0.000000 -2.081723
v -0.005000 0.000000 0.006000 0.752941 0.752941 0.752941
vn -3.141090 0.000000 3.140725
v -0.005000 0.000000 0.009500 0.752941 0.752941 0.752941
vn -5.485201 -0.538736 -2.010717
v -0.005000 0.001553 0.005796 0.752941 0.752941 0.752941
vn -5.790316 0.434953 1.623317
v -0.005000 0.002459 0.009176 0.752941 0.752941 0.752941
vn -5.485195 -1.040839 -1.802747
v -0.005000 0.003000 0.005196 0.752941 0.752941 0.752941
vn -5.485201 0.538736 -2.010717
v -0.005000 -0.001553 0.005796 0.752941 0.752941 0.752941
vn -5.485195 1.040839 -1.802747
v -0.005000 -0.003000 0.005196 0.752941 0.752941 0.752941
vn -5.790314 -0.434956 1.623318
v -0.005000 -0.002459 0.009176 0.752941 0.752941 0.752941
vn -5.485047 1.472091 -1.472048
v -0.005000 -0.004243 0.004243 0.752941 0.752941 0.752941
vn -5.485216 1.802709 -1.040852
v -0.005000 -0.005196 0.003000 0.752941 0.752941 0.752941
vn -5.790398 -0.840243 1.455303
v -0.005000 -0.004750 0.008227 0.752941 0.752941 0.752941
vn -5.485186 2.010729 -0.538762
v -0.005000 -0.005796 0.001553 0.752941 0.752941 0.752941
vn 2.617995 2.917726 0.990231
v 0.005000 0.010944 0.000044 0.752941 0.752941 0.752941
vn 2.749120 2.316876 2.031377
v 0.005000 0.005510 0.009456 0.752941 0.752941 0.752941
vn 5.485202 -2.010717 -0.538736
v 0.005000 0.005796 0.001553 0.752941 0.752941 0.752941
vn 5.485113 -2.081741 -0.000022
v 0.005000 0.006000 0.000000 0.752941 0.752941 0.752941
vn 2.617993 2.917736 -0.990234
v 0.005000 0.010944 -0.000044 0.752941 0.752941 0.752941
vn 0.000000 3.114760 0.000001
v 0.005000 0.010950 0.000000 0.752941 0.752941 0.752941
vn 5.485025 -1.472088 -1.472088
v 0.005000 0.004243 0.004243 0.752941 0.752941 0.752941
vn 5.485195 -1.802747 -1.040839
v 0.005000 0.005196 0.003000 0.752941 0.752941 0.752941
vn 2.749388 0.600392 3.022316
v 0.005000 0.005434 0.009500 0.752941 0.752941 0.752941
vn 2.879068 1.556912 2.697497
v 0.005000 0.005475 0.009483 0.752941 0.752941 0.752941
vn 2.749392 -0.600395 3.022323
v 0.005000 -0.005434 0.009500 0.752941 0.752941 0.752941
vn 5.485195 1.040839 -1.802747
v 0.005000 -0.003000 0.005196 0.752941 0.752941 0.752941
vn 5.485201 0.538736 -2.010717
v 0.005000 -0.001553 0.005796 0.752941 0.752941 0.752941
vn 5.485130 0.000000 -2.081723
v 0.005000 0.000000 0.006000 0.752941 0.752941 0.752941
vn 5.485199 -0.538735 -2.010719
v 0.005000 0.001553 0.005796 0.752941 0.752941 0.752941
vn 5.485194 -1.040841 -1.802747
v 0.005000 0.003000 0.005196 0.752941 0.752941 0.752941
vn 2.879068 -1.556916 2.697498
v 0.005000 -0.005475 0.009483 0.752941 0.752941 0.752941
vn 5.485209 1.802709 -1.040852
v 0.005000 -0.005196 0.003000 0.752941 0.752941 0.752941
vn 5.485047 1.472091 -1.472048
v 0.005000 -0.004243 0.004243 0.752941 0.752941 0.752941
vn 2.749116 -2.316868 2.031368
v 0.005000 -0.005510 0.009456 0.752941 0.752941 0.752941
vn 2.617993 -2.917736 0.990234
v 0.005000 -0.010944 0.000044 0.752941 0.752941 0.752941
vn 5.485112 2.081741 0.000022
v 0.005000 -0.006000 0.000000 0.752941 0.752941 0.752941
vn 5.485186 2.010729 -0.538762
v 0.005000 -0.005796 0.001553 0.752941 0.752941 0.752941
vn 5.485186 -2.010729 0.538762
v 0.005000 0.005796 -0.001553 0.752941 0.752941 0.752941
vn 5.485217 -1.802709 1.040853
v 0.005000 0.005196 -0.003000 0.752941 0.752941 0.752941
vn 2.749388 0.600395 -3.022323
v 0.005000 0.005434 -0.009500 0.752941 0.752941 0.752941
vn 2.879068 1.556916 -2.697498
v 0.005000 0.005475 -0.009483 0.752941 0.752941 0.752941
vn 2.749121 2.316868 -2.031368
v 0.005000 0.005510 -0.009456 0.752941 0.752941 0.752941
vn 5.485069 -1.472051 1.472051
v 0.005000 0.004243 -0.004243 0.752941 0.752941 0.752941
vn 5.485217 -1.040853 1.802709
v 0.005000 0.003000 -0.005196 0.752941 0.752941 0.752941
vn 5.485201 -0.538736 2.010717
v 0.005000 0.001553 -0.005796 0.752941 0.752941 0.752941
vn 5.485130 0.000000 2.081723
v 0.005000 0.000000 -0.006000 0.752941 0.752941 0.752941
vn 5.485199 0.538735 2.010719
v 0.005000 -0.001553 -0.005796 0.752941 0.752941 0.752941
vn 5.485216 1.040855 1.802709
v 0.005000 -0.003000 -0.005196 0.752941 0.752941 0.752941
vn 2.749392 -0.600392 -3.022316
v 0.005000 -0.005434 -0.009500 0.752941 0.752941 0.752941
vn 2.749112 -2.316876 -2.031377
v 0.005000 -0.005510 -0.009456 0.752941 0.752941 0.752941
vn 2.879068 -1.556912 -2.697497
v 0.005000 -0.005475 -0.009483 0.752941 0.752941 0.752941
vn 5.485188 1.802747 1.040839
v 0.005000 -0.005196 -0.003000 0.752941 0.752941 0.752941
vn 5.485047 1.472048 1.472091
v 0.005000 -0.004243 -0.004243 0.752941 0.752941 0.752941
vn 5.485201 2.010717 0.538736
v 0.005000 -0.005796 -0.001553 0.752941 0.752941 0.752941
vn 2.617995 -2.917726 -0.990231
v 0.005000 -0.010944 -0.000044 0.752941 0.752941 0.752941
vn 0.000000 -3.114760 -0.000001
v 0.005000 -0.010950 0.000000 0.752941 0.752941 0.752941
vn -2.774560 0.452596 -4.535496
v -0.004807 0.002546 -0.009500 0.752941 0.752941 0.752941
vn -2.518316 2.284029 -3.957028
v -0.004163 0.005475 -0.009483 0.752941 0.752941 0.752941
vn -2.328206 1.119249 -4.495990
v -0.004163 0.005434 -0.009500 0.752941 0.752941 0.752941
vn -2.774663 3.701404 -2.659581
v -0.004807 0.006955 -0.006955 0.752941 0.752941 0.752941
vn -2.328377 3.332931 -3.217183
v -0.004163 0.005510 -0.009456 0.752941 0.752941 0.752941
vn -2.774576 4.154155 -1.875814
v -0.004807 0.009500 -0.002546 0.752941 0.752941 0.752941
vn -2.519233 4.569246 -0.000062
v -0.004163 0.010950 0.000000 0.752941 0.752941 0.752941
vn -2.328628 4.451713 -1.276659
v -0.004163 0.010944 -0.000044 0.752941 0.752941 0.752941
vn -2.342106 -5.270720 1.412339
v -0.004053 0.004881 -0.001308 0.752941 0.752941 0.752941
vn 2.342106 -5.270720 1.412339
v 0.004053 0.004881 -0.001308 0.752941 0.752941 0.752941
vn 2.342066 -5.456735 -0.000033
v 0.004053 0.005053 0.000000 0.752941 0.752941 0.752941
vn -2.342066 -5.456735 -0.000033
v -0.004053 0.005053 0.000000 0.752941 0.752941 0.752941
vn -2.342077 -4.725622 2.728377
v -0.004053 0.004376 -0.002527 0.752941 0.752941 0.752941
vn 2.342077 -4.725622 2.728377
v 0.004053 0.004376 -0.002527 0.752941 0.752941 0.752941
vn -2.342007 -3.858552 3.858487
v -0.004053 0.003573 -0.003573 0.752941 0.752941 0.752941
vn 2.341976 -3.858538 3.858538
v 0.004053 0.003573 -0.003573 0.752941 0.752941 0.752941
vn -2.342109 -2.728324 4.725622
v -0.004053 0.002527 -0.004376 0.752941 0.752941 0.752941
vn 2.342077 -2.728377 4.725622
v 0.004053 0.002527 -0.004376 0.752941 0.752941 0.752941
vn -2.342083 -1.412312 5.270747
v -0.004053 0.001308 -0.004881 0.752941 0.752941 0.752941
vn 2.342083 -1.412312 5.270747
v 0.004053 0.001308 -0.004881 0.752941 0.752941 0.752941
vn -2.328207 -1.119252 -4.495996
v -0.004163 -0.005434 -0.009500 0.752941 0.752941 0.752941
vn -2.774547 -0.452550 -4.535540
v -0.004807 -0.002546 -0.009500 0.752941 0.752941 0.752941
vn -2.342043 0.000000 5.456753
v -0.004053 0.000000 -0.005053 0.752941 0.752941 0.752941
vn 2.342043 0.000000 5.456753
v 0.004053 0.000000 -0.005053 0.752941 0.752941 0.752941
vn -2.328449 4.452028 1.276762
v -0.004163 0.010944 0.000044 0.752941 0.752941 0.752941
vn -2.774583 4.154161 1.875837
v -0.004807 0.009500 0.002546 0.752941 0.752941 0.752941
vn -2.774639 3.701412 2.659558
v -0.004807 0.006955 0.006955 0.752941 0.752941 0.752941
vn -2.518315 2.284048 3.957018
v -0.004163 0.005475 0.009483 0.752941 0.752941 0.752941
vn -2.328488 3.332794 3.217047
v -0.004163 0.005510 0.009456 0.752941 0.752941 0.752941
vn -2.774547 0.452550 4.535540
v -0.004807 0.002546 0.009500 0.752941 0.752941 0.752941
vn -2.328207 1.119252 4.495996
v -0.004163 0.005434 0.009500 0.752941 0.752941 0.752941
vn 2.342043 -0.000000 -5.456753
v 0.004053 0.000000 0.005053 0.752941 0.752941 0.752941
vn -2.342043 0.000000 -5.456753
v -0.004053 0.000000 0.005053 0.752941 0.752941 0.752941
vn -2.342083 -1.412312 -5.270746
v -0.004053 0.001308 0.004881 0.752941 0.752941 0.752941
vn 2.342085 -1.412309 -5.270745
v 0.004053 0.001308 0.004881 0.752941 0.752941 0.752941
vn -2.342109 -2.728324 -4.725623
v -0.004053 0.002527 0.004376 0.752941 0.752941 0.752941
vn 2.342111 -2.728325 -4.725620
v 0.004053 0.002527 0.004376 0.752941 0.752941 0.752941
vn -2.342039 -3.858501 -3.858501
v -0.004053 0.003573 0.003573 0.752941 0.752941 0.752941
vn 2.342039 -3.858501 -3.858501
v 0.004053 0.003573 0.003573 0.752941 0.752941 0.752941
vn -2.342111 -4.725620 -2.728325
v -0.004053 0.004376 0.002527 0.752941 0.752941 0.752941
vn 2.342109 -4.725623 -2.728324
v 0.004053 0.004376 0.002527 0.752941 0.752941 0.752941
vn -2.342085 -5.270745 -1.412309
v -0.004053 0.004881 0.001308 0.752941 0.752941 0.752941
vn 2.342083 -5.270746 -1.412312
v 0.004053 0.004881 0.001308 0.752941 0.752941 0.752941
vn -2.774564 -0.452561 4.535543
v -0.004807 -0.002546 0.009500 0.752941 0.752941 0.752941
vn -2.518364 -2.284057 3.956896
v -0.004163 -0.005475 0.009483 0.752941 0.752941 0.752941
vn -2.328389 -1.119156 4.495687
v -0.004163 -0.005434 0.009500 0.752941 0.752941 0.752941
vn -2.328715 -3.332479 3.216799
v -0.004163 -0.005510 0.009456 0.752941 0.752941 0.752941
vn -2.774661 -3.701399 2.659582
v -0.004807 -0.006955 0.006955 0.752941 0.752941 0.752941
vn -2.774560 -4.154157 1.875845
v -0.004807 -0.009500 0.002546 0.752941 0.752941 0.752941
vn -2.519230 -4.569252 0.000053
v -0.004163 -0.010950 0.000000 0.752941 0.752941 0.752941
vn -2.328567 -4.451816 1.276682
v -0.004163 -0.010944 0.000044 0.752941 0.752941 0.752941
vn 2.342066 5.456735 0.000033
v 0.004053 -0.005053 0.000000 0.752941 0.752941 0.752941
vn -2.342066 5.456735 0.000033
v -0.004053 -0.005053 0.000000 0.752941 0.752941 0.752941
vn -2.342106 5.270720 -1.412339
v -0.004053 -0.004881 0.001308 0.752941 0.752941 0.752941
vn 2.342106 5.270720 -1.412339
v 0.004053 -0.004881 0.001308 0.752941 0.752941 0.752941
vn -2.342077 4.725622 -2.728377
v -0.004053 -0.004376 0.002527 0.752941 0.752941 0.752941
vn 2.342077 4.725622 -2.728377
v 0.004053 -0.004376 0.002527 0.752941 0.752941 0.752941
vn -2.342007 3.858552 -3.858487
v -0.004053 -0.003573 0.003573 0.752941 0.752941 0.752941
vn 2.342007 3.858552 -3.858487
v 0.004053 -0.003573 0.003573 0.752941 0.752941 0.752941
vn -2.342109 2.728324 -4.725622
v -0.004053 -0.002527 0.004376 0.752941 0.752941 0.752941
vn 2.342109 2.728324 -4.725623
v 0.004053 -0.002527 0.004376 0.752941 0.752941 0.752941
vn -2.342083 1.412312 -5.270747
v -0.004053 -0.001308 0.004881 0.752941 0.752941 0.752941
vn 2.342083 1.412312 -5.270747
v 0.004053 -0.001308 0.004881 0.752941 0.752941 0.752941
vn -2.774590 -4.154154 -1.875806
v -0.004807 -0.009500 -0.002546 0.752941 0.752941 0.752941
vn -2.328450 -4.452025 -1.276762
v -0.004163 -0.010944 -0.000044 0.752941 0.752941 0.752941
vn -2.774639 -3.701412 -2.659558
v -0.004807 -0.006955 -0.006955 0.752941 0.752941 0.752941
vn -2.518315 -2.284048 -3.957018
v -0.004163 -0.005475 -0.009483 0.752941 0.752941 0.752941
vn -2.328488 -3.332794 -3.217047
v -0.004163 -0.005510 -0.009456 0.752941 0.752941 0.752941
vn -2.342085 1.412309 5.270745
v -0.004053 -0.001308 -0.004881 0.752941 0.752941 0.752941
vn 2.342085 1.412309 5.270745
v 0.004053 -0.001308 -0.004881 0.752941 0.752941 0.752941
vn -2.342079 2.728378 4.725620
v -0.004053 -0.002527 -0.004376 0.752941 0.752941 0.752941
vn 2.342079 2.728378 4.725619
v 0.004053 -0.002527 -0.004376 0.752941 0.752941 0.752941
vn -2.342007 3.858487 3.858552
v -0.004053 -0.003573 -0.003573 0.752941 0.752941 0.752941
vn 2.342007 3.858487 3.858552
v 0.004053 -0.003573 -0.003573 0.752941 0.752941 0.752941
vn -2.342109 4.725622 2.728324
v -0.004053 -0.004376 -0.002527 0.752941 0.752941 0.752941
vn 2.342109 4.725623 2.728324
v 0.004053 -0.004376 -0.002527 0.752941 0.752941 0.752941
vn -2.342083 5.270746 1.412312
v -0.004053 -0.004881 -0.001308 0.752941 0.752941 0.752941
vn 2.342083 5.270746 1.412312
v 0.004053 -0.004881 -0.001308 0.752941 0.752941 0.752941
# 168 vertices, 0 vertices normals

f 1//1 2//2 3//3
f 3//3 2//2 4//4
f 3//3 4//4 5//5
f 5//5 4//4 6//6
f 5//5 6//6 7//7
f 7//7 6//6 8//8
f 7//7 8//8 9//9
f 10//10 11//11 12//12
f 12//12 11//11 13//13
f 12//12 13//13 6//6
f 6//6 13//13 14//14
f 6//6 14//14 8//8
f 15//15 16//16 17//17
f 15//15 17//17 18//18
f 15//15 18//18 10//10
f 15//15 10//10 12//12
f 19//19 20//20 21//21
f 21//21 20//20 22//22
f 21//21 22//22 16//16
f 16//16 22//22 17//17
f 23//23 24//24 25//25
f 23//23 25//25 26//26
f 23//23 26//26 19//19
f 23//23 19//19 21//21
f 27//27 28//28 29//29
f 29//29 28//28 30//30
f 29//29 30//30 31//31
f 31//31 30//30 32//32
f 31//31 32//32 24//24
f 24//24 32//32 33//33
f 24//24 33//33 25//25
f 34//34 35//35 36//36
f 34//34 36//36 7//7
f 34//34 7//7 9//9
f 37//37 38//38 39//39
f 39//39 38//38 40//40
f 39//39 40//40 41//41
f 41//41 40//40 36//36
f 41//41 36//36 35//35
f 42//42 43//43 44//44
f 42//42 44//44 38//38
f 42//42 38//38 37//37
f 45//45 46//46 47//47
f 45//45 47//47 44//44
f 45//45 44//44 43//43
f 48//48 33//33 32//32
f 48//48 32//32 47//47
f 48//48 47//47 46//46
f 49//49 50//50 51//51
f 49//49 51//51 52//52
f 49//49 52//52 53//53
f 55//55 56//56 57//57
f 57//57 56//56 51//51
f 57//57 51//51 58//58
f 58//58 51//51 50//50
f 57//57 59//59 60//60
f 57//57 60//60 61//61
f 57//57 61//61 62//62
f 57//57 62//62 63//63
f 57//57 63//63 64//64
f 57//57 64//64 55//55
f 59//59 65//65 66//66
f 59//59 66//66 67//67
f 59//59 67//67 60//60
f 68//68 69//69 70//70
f 68//68 70//70 71//71
f 68//68 71//71 66//66
f 68//68 66//66 65//65
f 72//72 73//73 74//74
f 72//72 74//74 75//75
f 72//72 75//75 76//76
f 72//72 76//76 53//53
f 72//72 53//53 52//52
f 74//74 73//73 77//77
f 74//74 77//77 78//78
f 74//74 78//78 79//79
f 74//74 79//79 80//80
f 74//74 80//80 81//81
f 74//74 81//81 82//82
f 74//74 82//82 83//83
f 84//84 85//85 86//86
f 86//86 85//85 83//83
f 86//86 83//83 87//87
f 87//87 83//83 82//82
f 84//84 86//86 88//88
f 84//84 88//88 70//70
f 84//84 70//70 69//69
f 84//84 69//69 89//89
f 15//15 91//91 16//16
f 91//91 15//15 12//12
f 91//91 12//12 92//92
f 91//91 92//92 93//93
f 92//92 12//12 6//6
f 92//92 6//6 94//94
f 92//92 94//94 95//95
f 94//94 6//6 4//4
f 96//96 4//4 2//2
f 96//96 2//2 1//1
f 96//96 1//1 97//97
f 96//96 97//97 98//98
f 93//93 92//92 75//75
f 93//93 75//75 74//74
f 76//76 75//75 92//92
f 76//76 92//92 95//95
f 98//98 97//97 54//54
f 98//98 54//54 53//53
f 99//99 100//100 101//101
f 99//99 101//101 102//102
f 102//102 8//8 14//14
f 102//102 14//14 99//99
f 101//101 100//100 72//72
f 101//101 72//72 52//52
f 53//53 76//76 95//95
f 53//53 95//95 94//94
f 53//53 94//94 4//4
f 53//53 4//4 96//96
f 53//53 96//96 98//98
f 100//100 99//99 103//103
f 100//100 103//103 104//104
f 104//104 73//73 72//72
f 104//104 72//72 100//100
f 14//14 13//13 103//103
f 14//14 103//103 99//99
f 104//104 103//103 105//105
f 104//104 105//105 106//106
f 103//103 13//13 11//11
f 103//103 11//11 105//105
f 104//104 106//106 77//77
f 104//104 77//77 73//73
f 106//106 105//105 107//107
f 106//106 107//107 108//108
f 77//77 106//106 108//108
f 77//77 108//108 78//78
f 10//10 107//107 105//105
f 10//10 105//105 11//11
f 108//108 107//107 109//109
f 108//108 109//109 110//110
f 107//107 10//10 18//18
f 107//107 18//18 109//109
f 79//79 78//78 108//108
f 79//79 108//108 110//110
f 74//74 83//83 111//111
f 74//74 111//111 112//112
f 74//74 112//112 16//16
f 74//74 16//16 91//91
f 74//74 91//91 93//93
f 110//110 109//109 113//113
f 110//110 113//113 114//114
f 109//109 18//18 17//17
f 109//109 17//17 113//113
f 80//80 79//79 110//110
f 80//80 110//110 114//114
f 115//115 97//97 1//1
f 115//115 1//1 3//3
f 115//115 3//3 116//116
f 116//116 3//3 5//5
f 117//117 5//5 7//7
f 7//7 36//36 118//118
f 7//7 118//118 119//119
f 7//7 119//119 117//117
f 118//118 36//36 40//40
f 118//118 40//40 120//120
f 118//118 120//120 121//121
f 120//120 40//40 38//38
f 49//49 54//54 97//97
f 49//49 97//97 115//115
f 119//119 118//118 58//58
f 119//119 58//58 50//50
f 57//57 58//58 118//118
f 57//57 118//118 121//121
f 122//122 123//123 124//124
f 122//122 124//124 125//125
f 62//62 122//122 125//125
f 62//62 125//125 63//63
f 37//37 39//39 124//124
f 37//37 124//124 123//123
f 125//125 124//124 126//126
f 125//125 126//126 127//127
f 39//39 41//41 126//126
f 39//39 126//126 124//124
f 125//125 127//127 64//64
f 125//125 64//64 63//63
f 127//127 126//126 128//128
f 127//127 128//128 129//129
f 64//64 127//127 129//129
f 64//64 129//129 55//55
f 41//41 35//35 128//128
f 41//41 128//128 126//126
f 50//50 49//49 115//115
f 50//50 115//115 116//116
f 50//50 116//116 5//5
f 50//50 5//5 117//117
f 50//50 117//117 119//119
f 129//129 128//128 130//130
f 129//129 130//130 131//131
f 34//34 130//130 128//128
f 34//34 128//128 35//35
f 129//129 131//131 56//56
f 129//129 56//56 55//55
f 131//131 130//130 132//132
f 131//131 132//132 133//133
f 132//132 130//130 34//34
f 132//132 34//34 9//9
f 131//131 133//133 51//51
f 131//131 51//51 56//56
f 102//102 101//101 133//133
f 102//102 133//133 132//132
f 132//132 9//9 8//8
f 132//132 8//8 102//102
f 133//133 101//101 52//52
f 133//133 52//52 51//51
f 38//38 44//44 134//134
f 44//44 47//47 135//135
f 44//44 135//135 136//136
f 44//44 136//136 134//134
f 137//137 135//135 47//47
f 137//137 47//47 32//32
f 137//137 32//32 138//138
f 138//138 32//32 30//30
f 139//139 30//30 28//28
f 28//28 27//27 140//140
f 28//28 140//140 141//141
f 28//28 141//141 139//139
f 136//136 135//135 65//65
f 136//136 65//65 59//59
f 68//68 65//65 135//135
f 68//68 135//135 137//137
f 141//141 140//140 90//90
f 141//141 90//90 69//69
f 142//142 143//143 144//144
f 142//142 144//144 145//145
f 143//143 33//33 48//48
f 143//143 48//48 144//144
f 142//142 145//145 71//71
f 142//142 71//71 70//70
f 69//69 68//68 137//137
f 69//69 137//137 138//138
f 69//69 138//138 30//30
f 69//69 30//30 139//139
f 69//69 139//139 141//141
f 145//145 144//144 146//146
f 145//145 146//146 147//147
f 71//71 145//145 147//147
f 71//71 147//147 66//66
f 48//48 46//46 146//146
f 48//48 146//146 144//144
f 147//147 146//146 148//148
f 147//147 148//148 149//149
f 146//146 46//46 45//45
f 146//146 45//45 148//148
f 147//147 149//149 67//67
f 147//147 67//67 66//66
f 149//149 148//148 150//150
f 149//149 150//150 151//151
f 148//148 45//45 43//43
f 148//148 43//43 150//150
f 149//149 151//151 60//60
f 149//149 60//60 67//67
f 151//151 150//150 152//152
f 151//151 152//152 153//153
f 150//150 43//43 42//42
f 150//150 42//42 152//152
f 151//151 153//153 61//61
f 151//151 61//61 60//60
f 59//59 57//57 121//121
f 59//59 121//121 120//120
f 59//59 120//120 38//38
f 59//59 38//38 134//134
f 59//59 134//134 136//136
f 153//153 152//152 123//123
f 153//153 123//123 122//122
f 152//152 42//42 37//37
f 152//152 37//37 123//123
f 153//153 122//122 62//62
f 153//153 62//62 61//61
f 27//27 29//29 154//154
f 27//27 154//154 155//155
f 27//27 155//155 140//140
f 31//31 154//154 29//29
f 156//156 31//31 24//24
f 24//24 23//23 157//157
f 24//24 157//157 158//158
f 24//24 158//158 156//156
f 157//157 23//23 21//21
f 157//157 21//21 112//112
f 157//157 112//112 111//111
f 112//112 21//21 16//16
f 89//89 90//90 140//140
f 89//89 140//140 155//155
f 158//158 157//157 85//85
f 158//158 85//85 84//84
f 83//83 85//85 157//157
f 83//83 157//157 111//111
f 114//114 113//113 159//159
f 114//114 159//159 160//160
f 80//80 114//114 160//160
f 80//80 160//160 81//81
f 17//17 22//22 159//159
f 17//17 159//159 113//113
f 160//160 159//159 161//161
f 160//160 161//161 162//162
f 159//159 22//22 20//20
f 159//159 20//20 161//161
f 160//160 162//162 82//82
f 160//160 82//82 81//81
f 162//162 161//161 163//163
f 162//162 163//163 164//164
f 161//161 20//20 19//19
f 161//161 19//19 163//163
f 162//162 164//164 87//87
f 162//162 87//87 82//82
f 84//84 89//89 155//155
f 84//84 155//155 154//154
f 84//84 154//154 31//31
f 84//84 31//31 156//156
f 84//84 156//156 158//158
f 164//164 163//163 165//165
f 164//164 165//165 166//166
f 163//163 19//19 26//26
f 163//163 26//26 165//165
f 164//164 166//166 86//86
f 164//164 86//86 87//87
f 166//166 165//165 167//167
f 166//166 167//167 168//168
f 165//165 26//26 25//25
f 165//165 25//25 167//167
f 166//166 168//168 88//88
f 166//166 88//88 86//86
f 168//168 167//167 143//143
f 168//168 143//143 142//142
f 167//167 25//25 33//33
f 167//167 33//33 143//143
f 168//168 142//142 70//70
f 168//168 70//70 88//88
# 334 faces, 0 coords texture

# End of File